<?xml version="1.0" encoding="utf-8"?>
<!-- Generator: Adobe Illustrator 26.0.1, SVG Export Plug-In . SVG Version: 6.00 Build 0)  -->
<svg version="1.1" id="Layer_1" xmlns="http://www.w3.org/2000/svg" xmlns:xlink="http://www.w3.org/1999/xlink" x="0px" y="0px"
	 viewBox="0 0 85 85" style="enable-background:new 0 0 85 85;" xml:space="preserve">
<style type="text/css">
	.st0{fill:#F8FFC2;}
	.st1{fill:#F9F9F9;}
	.st2{fill:#1D1E22;}
	.st3{fill:#FEC007;}
	.st4{fill:#FFFFFF;}
	.st5{fill:none;stroke:#F4F4F4;stroke-miterlimit:10;}
	.st6{fill:#666666;}
	.st7{fill:#003C81;}
	.st8{fill:#05D179;}
	.st9{fill:#FCA50B;}
	.st10{fill:#EF2B2B;}
	.st11{fill:#F4F4F4;}
	.st12{fill:#333333;}
	.st13{fill:none;stroke:#DDDDDD;stroke-miterlimit:10;}
	.st14{opacity:0.6;fill:#FFFFFF;}
	.st15{fill:url(#SVGID_00000098215648103384332230000000248868958192887181_);}
	.st16{fill:url(#SVGID_00000097473849277757077300000017210185641120619946_);}
	.st17{fill:#3E4E6C;}
	.st18{fill:#47284F;}
	.st19{fill:#FFBF9B;}
	.st20{fill:#6B70C6;}
	.st21{fill:#5C418E;}
	.st22{fill:#FFA687;}
	.st23{fill:#A03E4B;}
	.st24{fill:#BD4E5A;}
	.st25{fill:#CC5E6E;}
	.st26{fill:#442849;}
	.st27{fill:#73E6E0;}
	.st28{fill:#E4E4E0;}
	.st29{fill:#D46C67;}
	.st30{fill:#FFBF67;}
	.st31{fill:#FFA258;}
	.st32{opacity:0.5;fill:#F68D6C;}
	.st33{opacity:0.5;}
	.st34{fill:#F68D6C;}
	.st35{fill:#D6CFBE;}
	.st36{opacity:0.5;fill:#FFFFFF;}
	.st37{opacity:0.7;}
	.st38{fill:#22221C;}
	.st39{opacity:0.54;fill:none;stroke:#22221C;stroke-miterlimit:10;}
	.st40{fill:none;stroke:#8B75AD;stroke-width:4;stroke-miterlimit:10;}
	.st41{fill:none;stroke:#22221C;stroke-miterlimit:10;}
	.st42{fill:#EF80A5;}
	.st43{fill:#CB9443;}
	.st44{fill:#D8494E;}
	.st45{fill:none;stroke:#22221C;stroke-width:2;stroke-miterlimit:10;}
	.st46{fill:none;stroke:#22221C;stroke-width:5;stroke-miterlimit:10;}
	.st47{fill:#292622;}
	.st48{fill:#00A798;}
	.st49{clip-path:url(#SVGID_00000029004185757488513980000015264105773819317895_);fill:#292622;}
	.st50{fill:none;stroke:#22221C;stroke-width:0.75;stroke-miterlimit:10;}
	.st51{fill:#DDAE69;}
	.st52{opacity:0.13;fill:#191E2C;}
	.st53{fill:#783D3D;}
	.st54{fill:#FFD380;}
	.st55{fill:#914C4C;}
	.st56{fill:none;stroke:#22221C;stroke-width:4;stroke-linecap:round;stroke-miterlimit:10;}
	.st57{fill:#8B75AD;}
	.st58{clip-path:url(#SVGID_00000090980924255950384420000013956638363132455868_);fill:#292622;}
	.st59{opacity:0.24;fill:#292622;}
	.st60{fill:none;stroke:#00A798;stroke-width:5;stroke-miterlimit:10;}
	.st61{fill:none;stroke:#000000;stroke-width:2;stroke-miterlimit:10;}
	.st62{fill:#6584BF;}
	.st63{fill:#DE7863;}
	.st64{fill:#FC8671;}
	.st65{fill:#100E0E;}
	.st66{fill:#5172AD;}
	.st67{fill:#25203F;}
	.st68{fill:#343B68;}
	.st69{fill:none;stroke:#000000;stroke-width:0.75;stroke-miterlimit:10;}
	.st70{fill:#6640A9;}
	.st71{fill:none;stroke:#000000;stroke-miterlimit:10;}
	.st72{opacity:0.39;fill:none;stroke:#000000;stroke-miterlimit:10;}
	.st73{opacity:0.39;}
	.st74{opacity:0.4;fill:#100E0E;}
	.st75{fill:none;stroke:#FFFFFF;stroke-width:2;stroke-miterlimit:10;}
	.st76{fill:url(#SVGID_00000106857960113347394490000005043562589257129869_);}
	.st77{fill:url(#SVGID_00000059303114913100227200000008216458473139863192_);}
	.st78{fill:#999999;}
	.st79{fill:#00E9CA;}
	.st80{fill:#022D51;}
	.st81{fill:none;stroke:#FFFFFF;stroke-width:0.25;stroke-miterlimit:10;}
	.st82{fill:#02D392;}
	.st83{fill:#F44747;}
	.st84{fill:#00E8A6;}
	.st85{fill:url(#SVGID_00000085243699273843738280000006083222556102048958_);}
	.st86{fill:#719400;}
	.st87{fill:url(#SVGID_00000082350068231514149150000012108475988369764537_);}
	.st88{fill:url(#SVGID_00000068675798881011649760000003567782247183570616_);}
	.st89{fill:url(#SVGID_00000034073351660324874170000004442425327001188788_);}
	.st90{fill:url(#SVGID_00000106122290754089470180000014596292713470813868_);}
	.st91{fill:#D8603A;}
	.st92{opacity:0.6;}
	.st93{fill:#F2F2F2;}
	.st94{fill:url(#SVGID_00000113341768970410238500000004701570251976217530_);}
	.st95{fill:url(#SVGID_00000072247231888500039720000017122030489136646799_);}
	.st96{fill:none;stroke:#FFFFFF;stroke-width:0.5;stroke-miterlimit:10;}
	.st97{fill:none;stroke:#666666;stroke-miterlimit:10;}
	.st98{fill:none;stroke:#DBDBDB;stroke-miterlimit:10;}
	.st99{fill:#3CBC00;}
	.st100{fill:none;stroke:#DDDDDD;stroke-miterlimit:10;stroke-dasharray:6.9816,6.9816;}
	.st101{fill:#D8D8D8;}
	.st102{fill:url(#SVGID_00000047026993882146421910000006767273673580446635_);}
	.st103{fill:url(#SVGID_00000065061055600298617430000011944165229350836921_);}
	.st104{fill:url(#SVGID_00000042724565433936155080000012885506054371362996_);}
	.st105{fill:none;stroke:#454545;stroke-width:2;stroke-linecap:round;stroke-linejoin:round;stroke-miterlimit:10;}
	.st106{fill:none;stroke:#CCCCCC;stroke-miterlimit:10;}
	.st107{fill:url(#SVGID_00000058586040177521384860000010567321826438085032_);}
	.st108{fill:none;stroke:#EAEAEA;stroke-width:0.5;stroke-miterlimit:10;}
	.st109{fill:none;stroke:#333333;stroke-miterlimit:10;}
	.st110{fill:url(#SVGID_00000011735467068522247350000012773355258446533293_);}
	.st111{fill:url(#SVGID_00000147943107788771982570000004945501559575199132_);}
	.st112{fill:#E0FFC0;}
	.st113{fill:#FFE6E6;}
	.st114{fill:#E1E8FF;}
</style>
<g>
	<path class="st6" d="M2.5,48.43c0.33-1.58,0.75-3.12,1.72-4.46c1.34-1.83,3.07-3.1,5.27-3.65c0.57-0.14,0.73-0.38,0.72-0.95
		c-0.07-6.69,1.68-12.86,5.39-18.44c3.1-4.67,7.16-8.3,12.13-10.89c5.52-2.88,11.4-4,17.6-3.49c4.63,0.38,8.97,1.75,13.01,4.05
		c4.98,2.85,8.97,6.72,11.92,11.66c3.1,5.18,4.58,10.79,4.54,16.8c0,0.85,0.27,1.13,1.04,1.35c6,1.64,8.62,9.11,5.03,14.18
		c-1.33,1.88-3.06,3.19-5.3,3.73c-0.73,0.17-0.95,0.52-1.02,1.19c-0.27,2.59-1,5.04-2.23,7.34c-1.78,3.35-4.45,5.8-7.76,7.57
		c-4.23,2.26-8.83,3.19-13.54,3.69c-5.17,0.55-10.35,0.57-15.52,0.15c-4.97-0.41-9.86-1.26-14.39-3.51
		c-6.31-3.14-9.79-8.26-10.63-15.21c-0.08-0.67-0.28-1.01-1-1.21c-3.76-1.05-5.97-3.58-6.83-7.36c-0.04-0.17-0.1-0.34-0.15-0.52
		C2.5,49.78,2.5,49.11,2.5,48.43z M43.3,9.8c0.03,0.12,0.03,0.15,0.04,0.16c0.18,0.11,0.35,0.22,0.53,0.33
		c3.1,1.89,5.38,4.47,6.73,7.86c2.6,6.54-1.21,13.21-8.07,14.1c-5.36,0.7-10.05-4.15-9.13-9.45c0.55-3.21,3.49-5.69,6.71-5.66
		c0.95,0.01,1.61,0.58,1.72,1.47c0.1,0.81-0.45,1.53-1.33,1.74c-0.23,0.05-0.46,0.08-0.69,0.11c-1.78,0.2-3.19,1.68-3.21,3.46
		c-0.02,1.89,0.78,3.39,2.41,4.36c2.62,1.56,6.47,0.38,8.12-2.43c1.45-2.46,1.23-4.95,0-7.38c-2.1-4.17-5.65-6.41-10.16-7.22
		c-1.13-0.2-2.28-0.45-3.46-0.05c-4.87,1.62-9.04,4.32-12.48,8.13c-4.42,4.9-7.1,10.66-7.35,17.24c-0.28,7.18-0.14,14.37-0.02,21.56
		c0.05,2.99,0.95,5.85,2.65,8.38c2.33,3.45,5.73,5.37,9.56,6.63c3.76,1.24,7.65,1.75,11.59,1.95c6.12,0.3,12.23,0.23,18.27-1.03
		c3.5-0.73,6.82-1.9,9.7-4.08c4.01-3.03,5.82-7.27,5.94-12.12c0.18-6.95,0.14-13.9,0.01-20.85c-0.08-4.41-1.43-8.55-3.6-12.39
		c-3.12-5.52-7.58-9.62-13.34-12.26C50.93,10.74,47.23,9.87,43.3,9.8z M10.15,55.05c0-3.81,0-7.61,0-11.43
		c-2.44,0.53-4.37,3.1-4.35,5.74C5.82,52.02,7.81,54.63,10.15,55.05z M74.85,55.05c2.45-0.45,4.52-3.28,4.36-5.93
		c-0.17-2.69-2.28-5.34-4.36-5.45C74.85,47.47,74.85,51.26,74.85,55.05z"/>
	<path class="st6" d="M41.34,61.16c-2.24-0.06-5.05-1.2-7.39-3.42c-0.68-0.65-0.82-1.41-0.43-2.11c0.35-0.63,1.06-0.97,1.79-0.78
		c0.29,0.07,0.61,0.22,0.81,0.43c3.43,3.47,9.3,3.44,12.77,0.03c1.02-1,2.59-0.51,2.75,0.81c0.06,0.51-0.21,1.2-0.57,1.58
		C48.97,59.92,45.39,61.31,41.34,61.16z"/>
	<path class="st6" d="M22.66,50.65c0.02-1.74,1.49-3.18,3.22-3.14c1.72,0.04,3.11,1.46,3.11,3.17c0,1.74-1.46,3.2-3.19,3.18
		C24.07,53.85,22.64,52.4,22.66,50.65z"/>
	<path class="st6" d="M62.36,50.75c-0.03,1.71-1.47,3.12-3.17,3.12c-1.74,0-3.18-1.47-3.16-3.21c0.02-1.75,1.48-3.18,3.21-3.15
		C60.99,47.54,62.39,49,62.36,50.75z"/>
</g>
</svg>
