<?xml version="1.0" encoding="utf-8"?>
<!-- Generator: Adobe Illustrator 26.0.1, SVG Export Plug-In . SVG Version: 6.00 Build 0)  -->
<svg version="1.1" id="Layer_1" xmlns="http://www.w3.org/2000/svg" xmlns:xlink="http://www.w3.org/1999/xlink" x="0px" y="0px"
	 viewBox="0 0 85 85" style="enable-background:new 0 0 85 85;" xml:space="preserve">
<style type="text/css">
	.st0{fill:#F8FFC2;}
	.st1{fill:#F9F9F9;}
	.st2{fill:#1D1E22;}
	.st3{fill:#FEC007;}
	.st4{fill:#FFFFFF;}
	.st5{fill:none;stroke:#F4F4F4;stroke-miterlimit:10;}
	.st6{fill:#666666;}
	.st7{fill:#003C81;}
	.st8{fill:#05D179;}
	.st9{fill:#FCA50B;}
	.st10{fill:#EF2B2B;}
	.st11{fill:#F4F4F4;}
	.st12{fill:#333333;}
	.st13{fill:none;stroke:#DDDDDD;stroke-miterlimit:10;}
	.st14{opacity:0.6;fill:#FFFFFF;}
	.st15{fill:url(#SVGID_00000096760013869084330030000009858150069545987206_);}
	.st16{fill:url(#SVGID_00000143594208767415769400000003241600057065052604_);}
	.st17{fill:#3E4E6C;}
	.st18{fill:#47284F;}
	.st19{fill:#FFBF9B;}
	.st20{fill:#6B70C6;}
	.st21{fill:#5C418E;}
	.st22{fill:#FFA687;}
	.st23{fill:#A03E4B;}
	.st24{fill:#BD4E5A;}
	.st25{fill:#CC5E6E;}
	.st26{fill:#442849;}
	.st27{fill:#73E6E0;}
	.st28{fill:#E4E4E0;}
	.st29{fill:#D46C67;}
	.st30{fill:#FFBF67;}
	.st31{fill:#FFA258;}
	.st32{opacity:0.5;fill:#F68D6C;}
	.st33{opacity:0.5;}
	.st34{fill:#F68D6C;}
	.st35{fill:#D6CFBE;}
	.st36{opacity:0.5;fill:#FFFFFF;}
	.st37{opacity:0.7;}
	.st38{fill:#22221C;}
	.st39{opacity:0.54;fill:none;stroke:#22221C;stroke-miterlimit:10;}
	.st40{fill:none;stroke:#8B75AD;stroke-width:4;stroke-miterlimit:10;}
	.st41{fill:none;stroke:#22221C;stroke-miterlimit:10;}
	.st42{fill:#EF80A5;}
	.st43{fill:#CB9443;}
	.st44{fill:#D8494E;}
	.st45{fill:none;stroke:#22221C;stroke-width:2;stroke-miterlimit:10;}
	.st46{fill:none;stroke:#22221C;stroke-width:5;stroke-miterlimit:10;}
	.st47{fill:#292622;}
	.st48{fill:#00A798;}
	.st49{clip-path:url(#SVGID_00000140697271503572184510000015333383416463112584_);fill:#292622;}
	.st50{fill:none;stroke:#22221C;stroke-width:0.75;stroke-miterlimit:10;}
	.st51{fill:#DDAE69;}
	.st52{opacity:0.13;fill:#191E2C;}
	.st53{fill:#783D3D;}
	.st54{fill:#FFD380;}
	.st55{fill:#914C4C;}
	.st56{fill:none;stroke:#22221C;stroke-width:4;stroke-linecap:round;stroke-miterlimit:10;}
	.st57{fill:#8B75AD;}
	.st58{clip-path:url(#SVGID_00000181793535765985402440000014562177096231094919_);fill:#292622;}
	.st59{opacity:0.24;fill:#292622;}
	.st60{fill:none;stroke:#00A798;stroke-width:5;stroke-miterlimit:10;}
	.st61{fill:none;stroke:#000000;stroke-width:2;stroke-miterlimit:10;}
	.st62{fill:#6584BF;}
	.st63{fill:#DE7863;}
	.st64{fill:#FC8671;}
	.st65{fill:#100E0E;}
	.st66{fill:#5172AD;}
	.st67{fill:#25203F;}
	.st68{fill:#343B68;}
	.st69{fill:none;stroke:#000000;stroke-width:0.75;stroke-miterlimit:10;}
	.st70{fill:#6640A9;}
	.st71{fill:none;stroke:#000000;stroke-miterlimit:10;}
	.st72{opacity:0.39;fill:none;stroke:#000000;stroke-miterlimit:10;}
	.st73{opacity:0.39;}
	.st74{opacity:0.4;fill:#100E0E;}
	.st75{fill:none;stroke:#FFFFFF;stroke-width:2;stroke-miterlimit:10;}
	.st76{fill:url(#SVGID_00000121973040963437259140000000067651904624840348_);}
	.st77{fill:url(#SVGID_00000072974957408833068420000014228324755935700887_);}
	.st78{fill:#999999;}
	.st79{fill:#00E9CA;}
	.st80{fill:#022D51;}
	.st81{fill:none;stroke:#FFFFFF;stroke-width:0.25;stroke-miterlimit:10;}
	.st82{fill:#02D392;}
	.st83{fill:#F44747;}
	.st84{fill:#00E8A6;}
	.st85{fill:url(#SVGID_00000092447120142958614100000018054042891069897088_);}
	.st86{fill:#719400;}
	.st87{fill:url(#SVGID_00000169546106858436490310000000278419689337897654_);}
	.st88{fill:url(#SVGID_00000057150638967998579770000008384192628162335398_);}
	.st89{fill:url(#SVGID_00000121274840204334531820000001317250501913651597_);}
	.st90{fill:url(#SVGID_00000145046179967811139160000006015675502896215961_);}
	.st91{fill:#D8603A;}
	.st92{opacity:0.6;}
	.st93{fill:#F2F2F2;}
	.st94{fill:url(#SVGID_00000029749129669088055760000001310883362961447831_);}
	.st95{fill:url(#SVGID_00000005978678517287926940000017455869908443710622_);}
	.st96{fill:none;stroke:#FFFFFF;stroke-width:0.5;stroke-miterlimit:10;}
	.st97{fill:none;stroke:#666666;stroke-miterlimit:10;}
	.st98{fill:none;stroke:#DBDBDB;stroke-miterlimit:10;}
	.st99{fill:#3CBC00;}
	.st100{fill:none;stroke:#DDDDDD;stroke-miterlimit:10;stroke-dasharray:6.9816,6.9816;}
	.st101{fill:#D8D8D8;}
	.st102{fill:url(#SVGID_00000149351763794469480420000002354319727471617459_);}
	.st103{fill:url(#SVGID_00000147911749266543749220000009463887206156769454_);}
	.st104{fill:url(#SVGID_00000016782504265262446620000014004219465346587575_);}
	.st105{fill:none;stroke:#454545;stroke-width:2;stroke-linecap:round;stroke-linejoin:round;stroke-miterlimit:10;}
	.st106{fill:none;stroke:#CCCCCC;stroke-miterlimit:10;}
	.st107{fill:url(#SVGID_00000183939056624572178900000008386705616480148657_);}
	.st108{fill:none;stroke:#EAEAEA;stroke-width:0.5;stroke-miterlimit:10;}
	.st109{fill:none;stroke:#333333;stroke-miterlimit:10;}
	.st110{fill:url(#SVGID_00000005953578427658719230000001965675243222103708_);}
	.st111{fill:url(#SVGID_00000088124392605949560410000007296437949176199846_);}
	.st112{fill:#E0FFC0;}
	.st113{fill:#FFE6E6;}
	.st114{fill:#E1E8FF;}
</style>
<g>
	<path class="st6" d="M22.81,46.47c0.64-2.24,1.72-4.04,3.4-5.46c1.89-1.6,4.08-2.49,6.55-2.5c10.97-0.03,21.94-0.05,32.91,0
		c5.34,0.03,9.89,4.55,10.15,9.89c0.01,0.27,0.03,0.55,0.04,0.86c1.56,0.34,2.96,0.97,4.11,2.08c1.6,1.53,2.5,3.41,2.51,5.61
		c0.04,6.9,0.03,13.81,0.01,20.71c-0.01,2.63-2.16,4.76-4.7,4.76c-2.59-0.01-4.61-2.07-4.62-4.77c-0.01-2.44,0-4.88,0-7.32
		c0-1.1-0.11-1.22-1.17-1.22c-19.66,0-39.32,0-58.98,0c-1.03,0-1.16,0.13-1.16,1.14c0,2.5,0.02,4.99-0.01,7.49
		c-0.03,2.06-1.44,3.9-3.36,4.49c-1.87,0.58-3.88-0.08-5.04-1.65c-0.69-0.93-0.92-1.98-0.92-3.13C2.51,62.18,2.51,46.9,2.51,31.63
		c0-0.11,0-0.22,0-0.33c0.05-2.63,2.15-4.76,4.69-4.77c2.6-0.01,4.61,2.05,4.64,4.76c0.01,1.47-0.01,2.94,0.02,4.41
		c0.01,0.3,0.1,0.7,0.3,0.89C15.66,39.86,19.18,43.12,22.81,46.47z M75.83,52.1c0,0.28,0,0.55,0,0.82c0,2.16,0,4.33,0,6.49
		c0,1.25-0.46,1.71-1.7,1.71c-16.63,0-33.27,0-49.9,0c-1.26,0-1.72-0.45-1.72-1.69c-0.01-2.91-0.02-5.82,0.01-8.73
		c0.01-0.6-0.14-1.02-0.6-1.44c-3.75-3.42-7.46-6.9-11.21-10.31c-1.06-0.97-1.61-2.05-1.54-3.5c0.06-1.44,0.04-2.88,0-4.32
		c-0.03-0.99-0.74-1.77-1.66-1.92c-0.86-0.14-1.78,0.37-2.12,1.27c-0.15,0.4-0.2,0.86-0.2,1.3C5.17,46.94,5.17,62.1,5.17,77.27
		c0,0.22-0.01,0.45,0.01,0.66c0.09,0.87,0.7,1.58,1.52,1.78c0.81,0.2,1.7-0.17,2.11-0.97c0.22-0.43,0.34-0.94,0.34-1.42
		c0.03-2.41,0.01-4.82,0.02-7.24c0.01-2.25,1.38-3.63,3.63-3.63c19.8,0,39.6,0,59.4,0c2.25,0,3.62,1.38,3.63,3.63
		c0.01,2.5-0.01,4.99,0.01,7.49c0.01,1.27,0.8,2.16,1.91,2.19c1.1,0.03,2.07-0.92,2.07-2.16c0.02-6.9,0.03-13.81-0.01-20.71
		C79.79,54.58,77.96,52.46,75.83,52.1z M73.13,58.42c0-3.44,0.16-6.82-0.04-10.18c-0.24-3.96-3.6-7.04-7.53-7.06
		c-10.94-0.05-21.88-0.04-32.82,0c-3.67,0.02-6.9,2.8-7.39,6.44c-0.27,1.99-0.15,4.03-0.17,6.05c-0.02,1.57,0,3.14,0,4.75
		C41.18,58.42,57.11,58.42,73.13,58.42z"/>
	<path class="st6" d="M42.49,31.84c-8.08,0.01-14.64-6.55-14.66-14.67c-0.02-8.02,6.6-14.62,14.62-14.61
		c8.1,0.01,14.69,6.53,14.7,14.54C57.17,25.26,50.64,31.83,42.49,31.84z M42.48,5.22c-6.54-0.01-11.95,5.35-11.98,11.87
		c-0.02,6.66,5.32,12.07,11.93,12.08c6.66,0.01,12.05-5.33,12.06-11.95C54.5,10.6,49.13,5.23,42.48,5.22z"/>
	<path class="st6" d="M21.24,26.52c3.68,0.04,6.62,3.05,6.59,6.75c-0.03,3.66-3.08,6.6-6.78,6.56c-3.67-0.05-6.6-3.09-6.55-6.79
		C14.56,29.41,17.59,26.48,21.24,26.52z M21.2,29.18c-2.18-0.01-3.99,1.75-4.02,3.92c-0.03,2.21,1.75,4.03,3.97,4.06
		c2.17,0.02,4-1.76,4.02-3.92C25.19,31.02,23.4,29.2,21.2,29.18z"/>
	<path class="st6" d="M38.5,13.21c0-1.32-0.01-2.53,0-3.74c0.01-1.09,0.49-1.57,1.58-1.58c1.61-0.01,3.22-0.01,4.83,0
		C46,7.89,46.48,8.37,46.5,9.46c0.01,1.21,0,2.43,0,3.75c1.21,0,2.36,0,3.52,0c1.37,0,1.81,0.42,1.81,1.76c0,1.52,0.01,3.05,0,4.57
		c-0.01,1.18-0.48,1.64-1.68,1.65c-1.19,0.01-2.37,0-3.65,0c0,1.25,0,2.44,0,3.62c-0.01,1.25-0.46,1.7-1.71,1.7
		c-1.55,0.01-3.11,0.01-4.66,0c-1.14-0.01-1.62-0.48-1.62-1.62c-0.01-1.19,0-2.38,0-3.71c-1.18,0-2.33,0-3.48,0
		c-1.43,0-1.85-0.41-1.85-1.81c0-1.5-0.01-2.99,0-4.49c0.01-1.24,0.46-1.68,1.72-1.69C36.05,13.2,37.22,13.21,38.5,13.21z
		 M43.83,23.82c0-0.86,0-1.64,0-2.41c0-2.86,0.02-2.88,2.85-2.88c0.82,0,1.64,0,2.43,0c0-0.95,0-1.77,0-2.66c-0.87,0-1.7,0-2.52,0
		c-2.69,0-2.77-0.07-2.77-2.72c0-0.85,0-1.7,0-2.6c-0.51,0-0.92,0-1.33,0c-0.43,0-0.86,0-1.33,0c0,0.89,0,1.67,0,2.44
		c0,2.86-0.03,2.89-2.85,2.89c-0.82,0-1.64,0-2.43,0c0,0.95,0,1.77,0,2.66c1.15,0,2.25,0,3.35,0c1.54,0,1.93,0.38,1.93,1.89
		c0,1.12,0,2.25,0,3.4C42.09,23.82,42.91,23.82,43.83,23.82z"/>
</g>
</svg>
