<?xml version="1.0" encoding="utf-8"?>
<!-- Generator: Adobe Illustrator 26.0.1, SVG Export Plug-In . SVG Version: 6.00 Build 0)  -->
<svg version="1.1" id="Layer_1" xmlns="http://www.w3.org/2000/svg" xmlns:xlink="http://www.w3.org/1999/xlink" x="0px" y="0px"
	 viewBox="0 0 85 85" style="enable-background:new 0 0 85 85;" xml:space="preserve">
<style type="text/css">
	.st0{fill:#F8FFC2;}
	.st1{fill:#F9F9F9;}
	.st2{fill:#1D1E22;}
	.st3{fill:#FEC007;}
	.st4{fill:#FFFFFF;}
	.st5{fill:none;stroke:#F4F4F4;stroke-miterlimit:10;}
	.st6{fill:#666666;}
	.st7{fill:#003C81;}
	.st8{fill:#05D179;}
	.st9{fill:#FCA50B;}
	.st10{fill:#EF2B2B;}
	.st11{fill:#F4F4F4;}
	.st12{fill:#333333;}
	.st13{fill:none;stroke:#DDDDDD;stroke-miterlimit:10;}
	.st14{opacity:0.6;fill:#FFFFFF;}
	.st15{fill:url(#SVGID_00000124123906725528944760000015351241609117382534_);}
	.st16{fill:url(#SVGID_00000182491680081525466970000005552807351183941017_);}
	.st17{fill:#3E4E6C;}
	.st18{fill:#47284F;}
	.st19{fill:#FFBF9B;}
	.st20{fill:#6B70C6;}
	.st21{fill:#5C418E;}
	.st22{fill:#FFA687;}
	.st23{fill:#A03E4B;}
	.st24{fill:#BD4E5A;}
	.st25{fill:#CC5E6E;}
	.st26{fill:#442849;}
	.st27{fill:#73E6E0;}
	.st28{fill:#E4E4E0;}
	.st29{fill:#D46C67;}
	.st30{fill:#FFBF67;}
	.st31{fill:#FFA258;}
	.st32{opacity:0.5;fill:#F68D6C;}
	.st33{opacity:0.5;}
	.st34{fill:#F68D6C;}
	.st35{fill:#D6CFBE;}
	.st36{opacity:0.5;fill:#FFFFFF;}
	.st37{opacity:0.7;}
	.st38{fill:#22221C;}
	.st39{opacity:0.54;fill:none;stroke:#22221C;stroke-miterlimit:10;}
	.st40{fill:none;stroke:#8B75AD;stroke-width:4;stroke-miterlimit:10;}
	.st41{fill:none;stroke:#22221C;stroke-miterlimit:10;}
	.st42{fill:#EF80A5;}
	.st43{fill:#CB9443;}
	.st44{fill:#D8494E;}
	.st45{fill:none;stroke:#22221C;stroke-width:2;stroke-miterlimit:10;}
	.st46{fill:none;stroke:#22221C;stroke-width:5;stroke-miterlimit:10;}
	.st47{fill:#292622;}
	.st48{fill:#00A798;}
	.st49{clip-path:url(#SVGID_00000128450585779823577870000011473357537471587480_);fill:#292622;}
	.st50{fill:none;stroke:#22221C;stroke-width:0.75;stroke-miterlimit:10;}
	.st51{fill:#DDAE69;}
	.st52{opacity:0.13;fill:#191E2C;}
	.st53{fill:#783D3D;}
	.st54{fill:#FFD380;}
	.st55{fill:#914C4C;}
	.st56{fill:none;stroke:#22221C;stroke-width:4;stroke-linecap:round;stroke-miterlimit:10;}
	.st57{fill:#8B75AD;}
	.st58{clip-path:url(#SVGID_00000039812971352700862790000015860009251542290571_);fill:#292622;}
	.st59{opacity:0.24;fill:#292622;}
	.st60{fill:none;stroke:#00A798;stroke-width:5;stroke-miterlimit:10;}
	.st61{fill:none;stroke:#000000;stroke-width:2;stroke-miterlimit:10;}
	.st62{fill:#6584BF;}
	.st63{fill:#DE7863;}
	.st64{fill:#FC8671;}
	.st65{fill:#100E0E;}
	.st66{fill:#5172AD;}
	.st67{fill:#25203F;}
	.st68{fill:#343B68;}
	.st69{fill:none;stroke:#000000;stroke-width:0.75;stroke-miterlimit:10;}
	.st70{fill:#6640A9;}
	.st71{fill:none;stroke:#000000;stroke-miterlimit:10;}
	.st72{opacity:0.39;fill:none;stroke:#000000;stroke-miterlimit:10;}
	.st73{opacity:0.39;}
	.st74{opacity:0.4;fill:#100E0E;}
	.st75{fill:none;stroke:#FFFFFF;stroke-width:2;stroke-miterlimit:10;}
	.st76{fill:url(#SVGID_00000012445964112123708150000018239837666647292322_);}
	.st77{fill:url(#SVGID_00000119100325005411523300000002486658585299307154_);}
	.st78{fill:#999999;}
	.st79{fill:#00E9CA;}
	.st80{fill:#022D51;}
	.st81{fill:none;stroke:#FFFFFF;stroke-width:0.25;stroke-miterlimit:10;}
	.st82{fill:#02D392;}
	.st83{fill:#F44747;}
	.st84{fill:#00E8A6;}
	.st85{fill:url(#SVGID_00000170256159802113125650000003667753196379834540_);}
	.st86{fill:#719400;}
	.st87{fill:url(#SVGID_00000096049883384711448750000008687305099692535486_);}
	.st88{fill:url(#SVGID_00000106115576680794722400000003379710766715378344_);}
	.st89{fill:url(#SVGID_00000150083778068053428870000008759537933797846193_);}
	.st90{fill:url(#SVGID_00000064344519867001593340000011779753477630070931_);}
	.st91{fill:#D8603A;}
	.st92{opacity:0.6;}
	.st93{fill:#F2F2F2;}
	.st94{fill:url(#SVGID_00000166645734848920141600000014455093682338948001_);}
	.st95{fill:url(#SVGID_00000041296154956441986990000007954238836053253555_);}
	.st96{fill:none;stroke:#FFFFFF;stroke-width:0.5;stroke-miterlimit:10;}
	.st97{fill:none;stroke:#666666;stroke-miterlimit:10;}
	.st98{fill:none;stroke:#DBDBDB;stroke-miterlimit:10;}
	.st99{fill:#3CBC00;}
	.st100{fill:none;stroke:#DDDDDD;stroke-miterlimit:10;stroke-dasharray:6.9816,6.9816;}
	.st101{fill:#D8D8D8;}
	.st102{fill:url(#SVGID_00000093873184915286516290000008891433807498653825_);}
	.st103{fill:url(#SVGID_00000156586865006582744960000008382765852858917538_);}
	.st104{fill:url(#SVGID_00000025442608433870408250000001095480630648990110_);}
	.st105{fill:none;stroke:#454545;stroke-width:2;stroke-linecap:round;stroke-linejoin:round;stroke-miterlimit:10;}
	.st106{fill:none;stroke:#CCCCCC;stroke-miterlimit:10;}
	.st107{fill:url(#SVGID_00000170252799606300526550000001094552536004959876_);}
	.st108{fill:none;stroke:#EAEAEA;stroke-width:0.5;stroke-miterlimit:10;}
	.st109{fill:none;stroke:#333333;stroke-miterlimit:10;}
	.st110{fill:url(#SVGID_00000122701238512398047820000011222716724926036671_);}
	.st111{fill:url(#SVGID_00000115504288629096651440000014135630008330113412_);}
	.st112{fill:#E0FFC0;}
	.st113{fill:#FFE6E6;}
	.st114{fill:#E1E8FF;}
</style>
<path class="st6" d="M32.44,82.5c-3.04-1.41-6.08-2.82-9.12-4.21c-1.06-0.49-1.89-1.22-2.01-2.39c-0.08-0.73,0.04-1.58,0.34-2.25
	c2.28-5.02,4.6-10.02,6.95-15c0.59-1.25,0.7-2.45,0.26-3.77c-0.74-2.22-1.41-4.46-2.11-6.69c-0.05-0.17-0.09-0.36-0.18-0.51
	c-1.43-2.34-1.78-4.86-1.5-7.57c0.5-4.87,0.95-9.74,2.04-14.52c0.16-0.71,0.34-1.42,0.55-2.11c1.18-3.94,2.36-5.44,5.87-7.49
	c-1.1-1.25-1.71-2.72-1.86-4.38c-0.02-0.17-0.12-0.34-0.22-0.49c-2.02-2.78-0.33-7.24,3.62-7.99c0.64-0.12,1.27-0.24,1.9-0.4
	c4.44-1.16,8.78,2.09,8.9,6.68c0.02,0.88,0.05,1.78-0.06,2.65c-0.29,2.25-1.43,3.98-3.36,5.19c-0.15,0.09-0.3,0.2-0.49,0.33
	c1.82,1.48,2.91,3.36,2.9,5.67c-0.01,1.57-0.33,3.15-0.6,4.71c-0.13,0.74-0.06,1.34,0.32,1.99c1.7,2.9,0.74,2.15,3.98,3.05
	c1.48,0.41,2.96,0.79,4.45,1.18c3.16,0.83,4.42,2.71,3.98,5.93c-0.01,0.08,0,0.15,0,0.28c0.53,0.06,1.07,0.09,1.59,0.19
	c2.96,0.58,5.06,3.04,5.11,6.06c0.04,2.58,0.01,5.16,0.01,7.73c0,8.83-0.01,17.65,0.01,26.48c0,0.71-0.17,1.27-0.79,1.65
	c-0.26,0-0.52,0-0.78,0c-0.63-0.37-0.8-0.92-0.8-1.64c0.02-11.17-0.03-22.34,0.04-33.51c0.02-2.68-1.77-4.78-4.6-4.56
	c-1.52,0.12-3.01-0.03-4.46-0.57c-0.7-0.26-1.08-0.8-0.92-1.41c0.17-0.67,0.75-1,1.52-0.84c0.5,0.1,1,0.24,1.48,0.36
	c0.84-1.88,0.18-3.31-1.74-3.82c-2.14-0.57-4.27-1.15-6.41-1.68c-1.3-0.32-2.24-1.02-2.86-2.21c-0.53-1.03-1.13-2.03-1.72-3.1
	c-1.21,0.76-2.34,1.47-3.49,2.19c0.8,1.28,1.52,2.48,2.3,3.66c0.67,1.01,1.62,1.67,2.81,1.97c1.36,0.35,8.9,2.45,10.26,2.82
	c0.54,0.15,0.95,0.43,1.03,1.03c0.12,0.9-0.65,1.49-1.65,1.24c-1.3-0.34-8.79-2.42-10.21-2.8c-0.03,1.09-0.28,2.08,0.16,3.11
	c1.55,3.72,2.97,7.5,4.59,11.18c1.59,3.62,1.85,13.62,1.71,17.47c-0.03,0.69-0.49,1.14-1.13,1.16c-0.63,0.01-1.14-0.43-1.19-1.1
	c-0.04-0.57-0.04-1.15-0.01-1.72c0.1-2.76-0.22-11.68-1.29-14.26c-1.57-3.79-3.12-7.6-4.64-11.41c-0.2-0.5-0.44-0.65-0.96-0.65
	c-3.96,0.02-7.92,0.01-11.88,0.01c-0.2,0-0.4,0.03-0.65,0.05c0.31,1.54,0.96,2.85,1.96,3.98c3.1,3.52,6.18,7.05,9.31,10.54
	c1.27,1.41,1.87,3.02,1.85,4.91c-0.02,3.28-0.01,6.56-0.01,9.84c0,0.28,0,0.55,0,0.83c2.16,0,4.2,0,6.3,0c0-0.96-0.01-1.86,0-2.77
	c0.02-0.8,0.46-1.29,1.15-1.31c0.73-0.02,1.18,0.48,1.19,1.33c0.01,1.38,0.02,2.76-0.01,4.14c-0.02,0.8,0.29,1.35,1.04,1.64
	c1.06,0.42,1.82,1.18,2.45,2.11c1.14,1.7,0.91,2.76-0.83,3.78c-3.7,0-7.4,0-11.1,0c-1.92-0.67-2.6-2.04-2.57-4.03
	c0.08-4.37,0.03-8.74,0.03-13.11c0-0.27,0-0.54,0-0.86c-0.15,0.09-0.21,0.1-0.23,0.14c-1.6,3.41-3.21,6.82-4.8,10.23
	c-0.25,0.54-0.16,1.08,0.27,1.51c0.8,0.81,1.22,1.79,1.43,2.89c0.34,1.74,0.03,2.43-1.48,3.24C33.07,82.5,32.76,82.5,32.44,82.5z
	 M27.37,41.03c4.4,0,8.63,0,12.88,0c0.05-0.59,0.08-1.13,0.16-1.67c0.08-0.52-0.1-0.84-0.51-1.18c-0.54-0.47-1.05-1.02-1.43-1.63
	c-1.86-2.95-3.69-5.91-5.47-8.9c-0.37-0.62-0.61-1.4-0.66-2.13c-0.16-1.99,1.13-3.8,3.03-4.42c1.9-0.63,3.94,0.06,5.07,1.76
	c0.61,0.92,1.17,1.89,1.78,2.88c1.08-3.1-0.35-6.19-3.32-7.2c-0.71-0.24-1.46-0.35-2.21-0.47c-1.57-0.25-2.92,0.23-4.08,1.31
	c-1.5,1.4-2.4,3.16-2.78,5.13c-0.7,3.62-1.31,7.26-1.88,10.9C27.65,37.25,27.55,39.12,27.37,41.03z M31.67,72.36
	c0.08-0.1,0.12-0.13,0.14-0.17c1.79-3.87,3.59-7.74,5.35-11.62c0.11-0.24-0.02-0.71-0.21-0.92c-1.94-2.25-3.91-4.47-5.87-6.7
	c-0.12-0.14-0.27-0.25-0.53-0.49c0.19,0.61,0.3,1.06,0.47,1.5c0.75,2.02,0.59,3.95-0.39,5.88c-0.9,1.76-1.69,3.57-2.52,5.37
	c-0.7,1.5-1.4,3.01-2.12,4.57C27.93,70.65,29.81,71.51,31.67,72.36z M34.48,13.09c0.79,1.85,2.74,2.98,4.73,2.83
	c1.92-0.15,3.79-1.59,4.12-3.5c0.23-1.31,0.24-2.72,0.01-4.02c-0.39-2.17-2.74-3.79-4.77-3.47c0,1.8,0.01,3.62,0,5.44
	c-0.01,1.63-1.05,2.67-2.68,2.72C35.44,13.11,35,13.09,34.48,13.09z M40.53,75.98c0,1.04,0,1.97,0,2.91
	c0.01,1.04,0.24,1.27,1.3,1.27c2.76,0,5.51,0,8.27,0c0.19,0,0.38-0.04,0.57-0.05c0.03-0.06,0.06-0.13,0.09-0.19
	c-0.48-0.38-0.9-0.87-1.44-1.11c-1.15-0.5-1.95-1.25-2.35-2.44c-0.05-0.16-0.31-0.36-0.47-0.37C44.56,75.97,42.61,75.98,40.53,75.98
	z M32.44,79.88c0.07-0.06,0.15-0.12,0.22-0.17c-0.28-0.54-0.46-1.16-0.85-1.6c-0.81-0.91-1.22-1.91-1.11-3.13
	c0.02-0.18-0.1-0.49-0.24-0.56c-1.8-0.85-3.61-1.68-5.46-2.52c-0.28,0.59-0.51,1.11-0.76,1.63c-1.01,2.16-1.14,2.1,1.11,3.12
	C27.73,77.71,30.08,78.8,32.44,79.88z M40.51,27.49c-0.73-1.19-1.38-2.32-2.1-3.4c-0.57-0.86-1.66-1.1-2.57-0.67
	c-0.92,0.44-1.51,1.51-1.1,2.39c0.63,1.35,1.44,2.61,2.19,3.93C38.18,28.96,39.3,28.25,40.51,27.49z M36.22,5.48
	c-1.45-0.09-2.57,0.63-3.05,1.87c-0.73,1.86,0.52,3.56,2.51,3.38c0.19-0.02,0.52-0.29,0.52-0.46C36.24,8.69,36.22,7.11,36.22,5.48z"
	/>
</svg>
